<svg xmlns="http://www.w3.org/2000/svg" width="86" height="78" viewBox="0 0 86 78">
  <defs>
    <style>
      .cls-1, .cls-3 {
        fill: #ff6200;
      }

      .cls-2 {
        fill: #fff;
        stroke: #fff;
        stroke-width: 3px;
      }

      .cls-2, .cls-3 {
        fill-rule: evenodd;
      }
    </style>
  </defs>
  <circle class="cls-1" cx="45.5" cy="38.5" r="38.5"/>
  <path class="cls-2" d="M45.023,38.72c3.622,0,7.312-3.309,7.312-6.811A7.62,7.62,0,0,0,45.2,24.84c-3.621,0-7.222,3.652-7.222,7.153S41.4,38.72,45.023,38.72ZM59.29,59V48.493c0-3.434.236-3.105,0-5.253a4.6,4.6,0,0,0-4.527-3.5H46.615c-3.638,0-5.4-.011-9.026-0.011-1.809,0-2.989-.115-4.333,1.065-1.832,2.008-1.649,2.183-1.649,7.787V59.27c0,2.766-.484,7.071,2.381,7.071,2.719,0,2.694-1.876,2.694-4.67,0-3.947-.009-4.971-0.009-7.3,0-2.549-.151-2.982.379-2.982s0.528,0.034.528,2.743c0,2.51-.019,37.85-0.019,39.893a3.4,3.4,0,0,0,3.693,3.627c2.719,0,3.854-1.538,3.854-3.29V75.974c0-1.751.061-2.6,0.509-2.6s0.4,0.849.4,2.6V94.36a3.87,3.87,0,0,0,3.911,3.455c1.811,0,3.476-2.251,3.476-3.418,0-7,.042-38.169.042-40.373,0-1.194-.106-2.71.357-2.71s0.453,0.412.453,2.134V60.19c0,4.6.739,5.813,2.55,5.813C59.52,66,59.29,61.506,59.29,59Z"/>
  <path class="cls-3" d="M23.364,49.564l47.716,1.2S76.977,76.814,46,78c-24.141.924-28.391-22.963-28.391-22.963Z"/>
</svg>
