<svg xmlns="http://www.w3.org/2000/svg" width="86" height="78" viewBox="0 0 86 78">
  <defs>
    <style>
      .cls-1 {
        fill: #ff6200;
      }

      .cls-2 {
        fill: #fff;
        fill-rule: evenodd;
      }
    </style>
  </defs>
  <circle class="cls-1" cx="45.5" cy="38.5" r="38.5"/>
  <path class="cls-2" d="M62.5,51.792a2.835,2.835,0,0,1-3.926.709l-11.6-7.964a2.785,2.785,0,0,1-1.214-2.4A10.28,10.28,0,0,1,28.169,37a10.053,10.053,0,0,1,1.654-7.622A10.329,10.329,0,0,1,44.1,26.8a10.155,10.155,0,0,1,3.379,12.853,2.837,2.837,0,0,1,2.7.278l11.6,7.964A2.785,2.785,0,0,1,62.5,51.792ZM45.3,33.905a7.041,7.041,0,0,0-2.966-4.565,7.2,7.2,0,0,0-9.96,1.8,7.074,7.074,0,0,0,1.813,9.88,7.2,7.2,0,0,0,9.959-1.8A7.008,7.008,0,0,0,45.3,33.905Z"/>
</svg>
